<mxfile host="Electron" modified="2024-05-17T07:00:50.539Z" agent="Mozilla/5.0 (Windows NT 10.0; Win64; x64) AppleWebKit/537.36 (KHTML, like Gecko) draw.io/24.4.0 Chrome/120.0.6099.109 Electron/28.1.0 Safari/537.36" etag="Ke3xgxckrnZ0RGkvgn_C" version="24.4.0" type="device">
  <diagram name="Page-1" id="1LYZN4eg_bFJheUa5G1i">
    <mxGraphModel dx="2142" dy="965" grid="1" gridSize="10" guides="1" tooltips="1" connect="1" arrows="1" fold="1" page="1" pageScale="1" pageWidth="850" pageHeight="1100" math="0" shadow="0">
      <root>
        <mxCell id="0" />
        <mxCell id="1" parent="0" />
        <mxCell id="DlFWU1Mr_nN4XAocqVQB-2" style="edgeStyle=orthogonalEdgeStyle;rounded=0;orthogonalLoop=1;jettySize=auto;html=1;" edge="1" parent="1" source="DlFWU1Mr_nN4XAocqVQB-1">
          <mxGeometry relative="1" as="geometry">
            <mxPoint x="390" y="240" as="targetPoint" />
            <Array as="points">
              <mxPoint x="390" y="200" />
              <mxPoint x="390" y="200" />
            </Array>
          </mxGeometry>
        </mxCell>
        <mxCell id="DlFWU1Mr_nN4XAocqVQB-1" value="&lt;font style=&quot;font-size: 18px;&quot;&gt;Bắt Đầu&lt;/font&gt;" style="ellipse;whiteSpace=wrap;html=1;" vertex="1" parent="1">
          <mxGeometry x="330" y="70" width="120" height="110" as="geometry" />
        </mxCell>
        <mxCell id="DlFWU1Mr_nN4XAocqVQB-8" style="edgeStyle=orthogonalEdgeStyle;rounded=0;orthogonalLoop=1;jettySize=auto;html=1;entryX=0.5;entryY=0;entryDx=0;entryDy=0;" edge="1" parent="1" source="DlFWU1Mr_nN4XAocqVQB-3" target="DlFWU1Mr_nN4XAocqVQB-10">
          <mxGeometry relative="1" as="geometry">
            <mxPoint x="160" y="430" as="targetPoint" />
          </mxGeometry>
        </mxCell>
        <mxCell id="DlFWU1Mr_nN4XAocqVQB-9" value="&lt;font style=&quot;font-size: 18px;&quot;&gt;Nếu sai&lt;/font&gt;" style="edgeLabel;html=1;align=center;verticalAlign=middle;resizable=0;points=[];" vertex="1" connectable="0" parent="DlFWU1Mr_nN4XAocqVQB-8">
          <mxGeometry x="0.2314" y="5" relative="1" as="geometry">
            <mxPoint as="offset" />
          </mxGeometry>
        </mxCell>
        <mxCell id="DlFWU1Mr_nN4XAocqVQB-12" style="edgeStyle=orthogonalEdgeStyle;rounded=0;orthogonalLoop=1;jettySize=auto;html=1;" edge="1" parent="1">
          <mxGeometry relative="1" as="geometry">
            <mxPoint x="430" y="680" as="targetPoint" />
            <mxPoint x="467.5" y="320" as="sourcePoint" />
            <Array as="points">
              <mxPoint x="581" y="320" />
              <mxPoint x="581" y="610" />
              <mxPoint x="430" y="610" />
            </Array>
          </mxGeometry>
        </mxCell>
        <mxCell id="DlFWU1Mr_nN4XAocqVQB-13" value="&lt;br&gt;&lt;span style=&quot;color: rgb(0, 0, 0); font-family: Helvetica; font-size: 18px; font-style: normal; font-variant-ligatures: normal; font-variant-caps: normal; font-weight: 400; letter-spacing: normal; orphans: 2; text-align: center; text-indent: 0px; text-transform: none; widows: 2; word-spacing: 0px; -webkit-text-stroke-width: 0px; white-space: nowrap; background-color: rgb(255, 255, 255); text-decoration-thickness: initial; text-decoration-style: initial; text-decoration-color: initial; display: inline !important; float: none;&quot;&gt;Nếu đúng&lt;/span&gt;&lt;div&gt;&lt;br/&gt;&lt;/div&gt;" style="edgeLabel;html=1;align=center;verticalAlign=middle;resizable=0;points=[];" vertex="1" connectable="0" parent="DlFWU1Mr_nN4XAocqVQB-12">
          <mxGeometry x="-0.2146" relative="1" as="geometry">
            <mxPoint as="offset" />
          </mxGeometry>
        </mxCell>
        <mxCell id="DlFWU1Mr_nN4XAocqVQB-3" value="&lt;font style=&quot;font-size: 18px;&quot;&gt;Kiểm tra bit cuối&amp;nbsp;&lt;/font&gt;&lt;div&gt;&lt;font size=&quot;3&quot; style=&quot;&quot;&gt;số bị nhân bằng 0.&lt;/font&gt;&lt;/div&gt;" style="rhombus;whiteSpace=wrap;html=1;" vertex="1" parent="1">
          <mxGeometry x="302.5" y="240" width="175" height="150" as="geometry" />
        </mxCell>
        <mxCell id="DlFWU1Mr_nN4XAocqVQB-16" style="edgeStyle=orthogonalEdgeStyle;rounded=0;orthogonalLoop=1;jettySize=auto;html=1;exitX=0.5;exitY=1;exitDx=0;exitDy=0;" edge="1" parent="1" source="DlFWU1Mr_nN4XAocqVQB-10">
          <mxGeometry relative="1" as="geometry">
            <mxPoint x="320" y="680" as="targetPoint" />
            <Array as="points">
              <mxPoint x="160" y="610" />
              <mxPoint x="320" y="610" />
            </Array>
          </mxGeometry>
        </mxCell>
        <mxCell id="DlFWU1Mr_nN4XAocqVQB-10" value="&lt;font size=&quot;3&quot;&gt;Cộng số bị nhân vào thanh ghi chứa 32 bit cao&lt;/font&gt;" style="rounded=0;whiteSpace=wrap;html=1;" vertex="1" parent="1">
          <mxGeometry x="80" y="440" width="160" height="100" as="geometry" />
        </mxCell>
        <mxCell id="DlFWU1Mr_nN4XAocqVQB-21" style="edgeStyle=orthogonalEdgeStyle;rounded=0;orthogonalLoop=1;jettySize=auto;html=1;" edge="1" parent="1" source="DlFWU1Mr_nN4XAocqVQB-19">
          <mxGeometry relative="1" as="geometry">
            <mxPoint x="361.25" y="850" as="targetPoint" />
          </mxGeometry>
        </mxCell>
        <mxCell id="DlFWU1Mr_nN4XAocqVQB-19" value="&lt;div style=&quot;&quot;&gt;&lt;span style=&quot;font-size: medium; background-color: initial;&quot;&gt;Dịch phải thanh ghi chứa 32 bit cao một bit&lt;/span&gt;&lt;/div&gt;" style="rounded=0;whiteSpace=wrap;html=1;align=center;" vertex="1" parent="1">
          <mxGeometry x="245" y="680" width="232.5" height="100" as="geometry" />
        </mxCell>
        <mxCell id="DlFWU1Mr_nN4XAocqVQB-23" style="edgeStyle=orthogonalEdgeStyle;rounded=0;orthogonalLoop=1;jettySize=auto;html=1;" edge="1" parent="1" source="DlFWU1Mr_nN4XAocqVQB-22">
          <mxGeometry relative="1" as="geometry">
            <mxPoint x="356" y="1030" as="targetPoint" />
          </mxGeometry>
        </mxCell>
        <mxCell id="DlFWU1Mr_nN4XAocqVQB-22" value="&lt;span style=&quot;font-size: medium;&quot;&gt;Dịch phải thanh ghi chứa 32 bit thấp một bit&lt;/span&gt;" style="rounded=0;whiteSpace=wrap;html=1;" vertex="1" parent="1">
          <mxGeometry x="240" y="850" width="232.5" height="100" as="geometry" />
        </mxCell>
        <mxCell id="DlFWU1Mr_nN4XAocqVQB-26" style="edgeStyle=orthogonalEdgeStyle;rounded=0;orthogonalLoop=1;jettySize=auto;html=1;" edge="1" parent="1" source="DlFWU1Mr_nN4XAocqVQB-25">
          <mxGeometry relative="1" as="geometry">
            <mxPoint x="356.25" y="1200" as="targetPoint" />
          </mxGeometry>
        </mxCell>
        <mxCell id="DlFWU1Mr_nN4XAocqVQB-25" value="&lt;font size=&quot;3&quot;&gt;Dịch phải số bị nhân một bit&lt;/font&gt;" style="rounded=0;whiteSpace=wrap;html=1;" vertex="1" parent="1">
          <mxGeometry x="240" y="1030" width="232.5" height="100" as="geometry" />
        </mxCell>
        <mxCell id="DlFWU1Mr_nN4XAocqVQB-53" style="edgeStyle=orthogonalEdgeStyle;rounded=0;orthogonalLoop=1;jettySize=auto;html=1;entryX=0.5;entryY=0;entryDx=0;entryDy=0;" edge="1" parent="1" source="DlFWU1Mr_nN4XAocqVQB-27" target="DlFWU1Mr_nN4XAocqVQB-45">
          <mxGeometry relative="1" as="geometry">
            <mxPoint x="570" y="1630" as="targetPoint" />
          </mxGeometry>
        </mxCell>
        <mxCell id="DlFWU1Mr_nN4XAocqVQB-54" value="&lt;br&gt;&lt;br style=&quot;forced-color-adjust: none; color: rgb(0, 0, 0); font-family: Helvetica; font-size: 11px; font-style: normal; font-variant-ligatures: normal; font-variant-caps: normal; font-weight: 400; letter-spacing: normal; orphans: 2; text-align: center; text-indent: 0px; text-transform: none; widows: 2; word-spacing: 0px; -webkit-text-stroke-width: 0px; white-space: nowrap; text-decoration-thickness: initial; text-decoration-style: initial; text-decoration-color: initial;&quot;&gt;&lt;span style=&quot;forced-color-adjust: none; color: rgb(0, 0, 0); font-family: Helvetica; font-style: normal; font-variant-ligatures: normal; font-variant-caps: normal; font-weight: 400; letter-spacing: normal; orphans: 2; text-align: center; text-indent: 0px; text-transform: none; widows: 2; word-spacing: 0px; -webkit-text-stroke-width: 0px; white-space: nowrap; background-color: rgb(255, 255, 255); text-decoration-thickness: initial; text-decoration-style: initial; text-decoration-color: initial; font-size: 18px; float: none; display: inline !important;&quot;&gt;Nếu đúng&lt;/span&gt;&lt;div style=&quot;forced-color-adjust: none; color: rgb(0, 0, 0); font-family: Helvetica; font-size: 11px; font-style: normal; font-variant-ligatures: normal; font-variant-caps: normal; font-weight: 400; letter-spacing: normal; orphans: 2; text-align: center; text-indent: 0px; text-transform: none; widows: 2; word-spacing: 0px; -webkit-text-stroke-width: 0px; white-space: nowrap; text-decoration-thickness: initial; text-decoration-style: initial; text-decoration-color: initial;&quot;&gt;&lt;div style=&quot;forced-color-adjust: none;&quot;&gt;&lt;br style=&quot;forced-color-adjust: none;&quot;&gt;&lt;/div&gt;&lt;/div&gt;&lt;div&gt;&lt;br/&gt;&lt;/div&gt;" style="edgeLabel;html=1;align=center;verticalAlign=middle;resizable=0;points=[];" vertex="1" connectable="0" parent="DlFWU1Mr_nN4XAocqVQB-53">
          <mxGeometry x="-0.2222" y="-2" relative="1" as="geometry">
            <mxPoint as="offset" />
          </mxGeometry>
        </mxCell>
        <mxCell id="DlFWU1Mr_nN4XAocqVQB-27" value="&lt;font style=&quot;font-size: 18px;&quot;&gt;Kiểm tra bit cuối&amp;nbsp;&lt;/font&gt;&lt;span style=&quot;font-size: 18px; background-color: initial;&quot;&gt;&amp;nbsp;&lt;/span&gt;&lt;div&gt;&lt;div&gt;&lt;font style=&quot;font-size: 18px;&quot;&gt;32 bit cao bằng 0&lt;/font&gt;&lt;/div&gt;&lt;/div&gt;" style="rhombus;whiteSpace=wrap;html=1;" vertex="1" parent="1">
          <mxGeometry x="270" y="1200" width="170" height="150" as="geometry" />
        </mxCell>
        <mxCell id="DlFWU1Mr_nN4XAocqVQB-47" style="edgeStyle=orthogonalEdgeStyle;rounded=0;orthogonalLoop=1;jettySize=auto;html=1;entryX=0;entryY=0.5;entryDx=0;entryDy=0;" edge="1" parent="1" target="DlFWU1Mr_nN4XAocqVQB-45">
          <mxGeometry relative="1" as="geometry">
            <mxPoint x="293.39999999999986" y="1694.3500000000004" as="targetPoint" />
            <mxPoint x="99.99882352941171" y="1490" as="sourcePoint" />
            <Array as="points">
              <mxPoint x="100" y="1694" />
              <mxPoint x="270" y="1694" />
            </Array>
          </mxGeometry>
        </mxCell>
        <mxCell id="DlFWU1Mr_nN4XAocqVQB-39" value="&lt;font size=&quot;3&quot;&gt;Cộng vào thanh ghi chứa 32 bit thấp số thập&amp;nbsp; lục phân 0x80000000&lt;/font&gt;" style="rounded=0;whiteSpace=wrap;html=1;" vertex="1" parent="1">
          <mxGeometry x="-12.5" y="1405" width="210" height="105" as="geometry" />
        </mxCell>
        <mxCell id="DlFWU1Mr_nN4XAocqVQB-41" style="edgeStyle=orthogonalEdgeStyle;rounded=0;orthogonalLoop=1;jettySize=auto;html=1;exitX=0;exitY=0.5;exitDx=0;exitDy=0;" edge="1" parent="1" source="DlFWU1Mr_nN4XAocqVQB-27">
          <mxGeometry relative="1" as="geometry">
            <mxPoint x="207.5" y="1275" as="sourcePoint" />
            <mxPoint x="87.5" y="1400" as="targetPoint" />
          </mxGeometry>
        </mxCell>
        <mxCell id="DlFWU1Mr_nN4XAocqVQB-42" value="&lt;br&gt;&lt;span style=&quot;forced-color-adjust: none; color: rgb(0, 0, 0); font-family: Helvetica; font-size: 18px; font-style: normal; font-variant-ligatures: normal; font-variant-caps: normal; font-weight: 400; letter-spacing: normal; orphans: 2; text-align: center; text-indent: 0px; text-transform: none; widows: 2; word-spacing: 0px; -webkit-text-stroke-width: 0px; white-space: nowrap; background-color: rgb(255, 255, 255); text-decoration-thickness: initial; text-decoration-style: initial; text-decoration-color: initial; float: none; display: inline !important;&quot;&gt;Nếu sai&lt;/span&gt;&lt;div&gt;&lt;div style=&quot;forced-color-adjust: none;&quot;&gt;&lt;br&gt;&lt;br&gt;&lt;/div&gt;&lt;/div&gt;" style="edgeLabel;html=1;align=center;verticalAlign=middle;resizable=0;points=[];" vertex="1" connectable="0" parent="DlFWU1Mr_nN4XAocqVQB-41">
          <mxGeometry x="0.3438" y="-4" relative="1" as="geometry">
            <mxPoint x="4" y="25" as="offset" />
          </mxGeometry>
        </mxCell>
        <mxCell id="DlFWU1Mr_nN4XAocqVQB-56" style="edgeStyle=orthogonalEdgeStyle;rounded=0;orthogonalLoop=1;jettySize=auto;html=1;" edge="1" parent="1" source="DlFWU1Mr_nN4XAocqVQB-45" target="DlFWU1Mr_nN4XAocqVQB-68">
          <mxGeometry relative="1" as="geometry">
            <mxPoint x="355" y="1920" as="targetPoint" />
          </mxGeometry>
        </mxCell>
        <mxCell id="DlFWU1Mr_nN4XAocqVQB-58" style="edgeStyle=orthogonalEdgeStyle;rounded=0;orthogonalLoop=1;jettySize=auto;html=1;exitX=1;exitY=0.5;exitDx=0;exitDy=0;" edge="1" parent="1" source="DlFWU1Mr_nN4XAocqVQB-45">
          <mxGeometry relative="1" as="geometry">
            <mxPoint x="390" y="200" as="targetPoint" />
            <mxPoint x="480" y="1665" as="sourcePoint" />
            <Array as="points">
              <mxPoint x="780" y="1695" />
              <mxPoint x="780" y="200" />
            </Array>
          </mxGeometry>
        </mxCell>
        <mxCell id="DlFWU1Mr_nN4XAocqVQB-45" value="&lt;span style=&quot;font-size: 18px;&quot;&gt;Kiểm tra đã thực hiện 32 lần lặp&lt;/span&gt;" style="rhombus;whiteSpace=wrap;html=1;" vertex="1" parent="1">
          <mxGeometry x="270" y="1620" width="170" height="150" as="geometry" />
        </mxCell>
        <mxCell id="DlFWU1Mr_nN4XAocqVQB-55" value="&lt;div&gt;&lt;div style=&quot;forced-color-adjust: none;&quot;&gt;&lt;br&gt;&lt;/div&gt;&lt;/div&gt;" style="edgeLabel;html=1;align=center;verticalAlign=middle;resizable=0;points=[];" vertex="1" connectable="0" parent="1">
          <mxGeometry x="97.90450335207743" y="1333.8661620126445" as="geometry">
            <mxPoint x="213" y="75" as="offset" />
          </mxGeometry>
        </mxCell>
        <mxCell id="DlFWU1Mr_nN4XAocqVQB-57" value="&lt;div style=&quot;forced-color-adjust: none; color: rgb(0, 0, 0); font-family: Helvetica; font-size: 11px; font-style: normal; font-variant-ligatures: normal; font-variant-caps: normal; font-weight: 400; letter-spacing: normal; orphans: 2; text-align: center; text-indent: 0px; text-transform: none; widows: 2; word-spacing: 0px; -webkit-text-stroke-width: 0px; white-space: nowrap; text-decoration-thickness: initial; text-decoration-style: initial; text-decoration-color: initial;&quot;&gt;&lt;div style=&quot;forced-color-adjust: none;&quot;&gt;&lt;br&gt;&lt;br&gt;&lt;span style=&quot;font-size: 18px;&quot;&gt;Nếu đúng&lt;/span&gt;&lt;div&gt;&lt;br&gt;&lt;/div&gt;&lt;/div&gt;&lt;/div&gt;" style="edgeLabel;html=1;align=center;verticalAlign=middle;resizable=0;points=[];" vertex="1" connectable="0" parent="1">
          <mxGeometry x="355" y="1609.9958823529414" as="geometry">
            <mxPoint x="7" y="224" as="offset" />
          </mxGeometry>
        </mxCell>
        <mxCell id="DlFWU1Mr_nN4XAocqVQB-67" value="&lt;font style=&quot;font-size: 18px;&quot;&gt;Kết thúc&lt;/font&gt;" style="ellipse;whiteSpace=wrap;html=1;" vertex="1" parent="1">
          <mxGeometry x="300" y="2330" width="120" height="90" as="geometry" />
        </mxCell>
        <mxCell id="DlFWU1Mr_nN4XAocqVQB-69" style="edgeStyle=orthogonalEdgeStyle;rounded=0;orthogonalLoop=1;jettySize=auto;html=1;entryX=0.5;entryY=0;entryDx=0;entryDy=0;exitX=0.5;exitY=1;exitDx=0;exitDy=0;" edge="1" parent="1" source="DlFWU1Mr_nN4XAocqVQB-68" target="DlFWU1Mr_nN4XAocqVQB-67">
          <mxGeometry relative="1" as="geometry">
            <mxPoint x="360" y="2300" as="targetPoint" />
            <mxPoint x="360" y="2240" as="sourcePoint" />
            <Array as="points" />
          </mxGeometry>
        </mxCell>
        <mxCell id="DlFWU1Mr_nN4XAocqVQB-75" style="edgeStyle=orthogonalEdgeStyle;rounded=0;orthogonalLoop=1;jettySize=auto;html=1;" edge="1" parent="1" source="DlFWU1Mr_nN4XAocqVQB-68">
          <mxGeometry relative="1" as="geometry">
            <mxPoint x="710" y="2130" as="targetPoint" />
          </mxGeometry>
        </mxCell>
        <mxCell id="DlFWU1Mr_nN4XAocqVQB-68" value="&lt;font style=&quot;font-size: 18px;&quot;&gt;Kiểm tra &lt;font style=&quot;&quot;&gt;só &lt;/font&gt;nhân&amp;nbsp;&lt;/font&gt;&lt;div&gt;&lt;font style=&quot;font-size: 18px;&quot;&gt;và số bị nhân&amp;nbsp;&lt;/font&gt;&lt;/div&gt;&lt;div&gt;&lt;font style=&quot;font-size: 18px;&quot;&gt;cùng dấu&lt;/font&gt;&lt;/div&gt;" style="rhombus;whiteSpace=wrap;html=1;" vertex="1" parent="1">
          <mxGeometry x="260" y="1920" width="200" height="170" as="geometry" />
        </mxCell>
        <mxCell id="DlFWU1Mr_nN4XAocqVQB-72" value="&lt;div style=&quot;forced-color-adjust: none; color: rgb(0, 0, 0); font-family: Helvetica; font-size: 11px; font-style: normal; font-variant-ligatures: normal; font-variant-caps: normal; font-weight: 400; letter-spacing: normal; orphans: 2; text-align: center; text-indent: 0px; text-transform: none; widows: 2; word-spacing: 0px; -webkit-text-stroke-width: 0px; white-space: nowrap; text-decoration-thickness: initial; text-decoration-style: initial; text-decoration-color: initial;&quot;&gt;&lt;div style=&quot;forced-color-adjust: none;&quot;&gt;&lt;br&gt;&lt;br&gt;&lt;span style=&quot;font-size: 18px;&quot;&gt;Nếu đúng&lt;/span&gt;&lt;div&gt;&lt;br&gt;&lt;/div&gt;&lt;/div&gt;&lt;/div&gt;" style="edgeLabel;html=1;align=center;verticalAlign=middle;resizable=0;points=[];" vertex="1" connectable="0" parent="1">
          <mxGeometry x="355" y="1909.9958823529414" as="geometry">
            <mxPoint x="7" y="224" as="offset" />
          </mxGeometry>
        </mxCell>
        <mxCell id="DlFWU1Mr_nN4XAocqVQB-73" value="&lt;div style=&quot;forced-color-adjust: none; color: rgb(0, 0, 0); font-family: Helvetica; font-size: 11px; font-style: normal; font-variant-ligatures: normal; font-variant-caps: normal; font-weight: 400; letter-spacing: normal; orphans: 2; text-align: center; text-indent: 0px; text-transform: none; widows: 2; word-spacing: 0px; -webkit-text-stroke-width: 0px; white-space: nowrap; text-decoration-thickness: initial; text-decoration-style: initial; text-decoration-color: initial;&quot;&gt;&lt;div style=&quot;forced-color-adjust: none;&quot;&gt;&lt;br&gt;&lt;br&gt;&lt;span style=&quot;font-size: 18px;&quot;&gt;Nếu sai&lt;/span&gt;&lt;div&gt;&lt;br&gt;&lt;/div&gt;&lt;/div&gt;&lt;/div&gt;" style="edgeLabel;html=1;align=center;verticalAlign=middle;resizable=0;points=[];" vertex="1" connectable="0" parent="1">
          <mxGeometry x="700" y="1819.9958823529414" as="geometry">
            <mxPoint x="7" y="224" as="offset" />
          </mxGeometry>
        </mxCell>
        <mxCell id="DlFWU1Mr_nN4XAocqVQB-77" style="edgeStyle=orthogonalEdgeStyle;rounded=0;orthogonalLoop=1;jettySize=auto;html=1;entryX=1;entryY=0.5;entryDx=0;entryDy=0;" edge="1" parent="1" source="DlFWU1Mr_nN4XAocqVQB-76" target="DlFWU1Mr_nN4XAocqVQB-67">
          <mxGeometry relative="1" as="geometry">
            <mxPoint x="710" y="2370" as="targetPoint" />
            <Array as="points">
              <mxPoint x="710" y="2375" />
            </Array>
          </mxGeometry>
        </mxCell>
        <mxCell id="DlFWU1Mr_nN4XAocqVQB-76" value="&lt;font style=&quot;font-size: 18px;&quot;&gt;Đảo dấu của thanh ghi chứa 32 bit cao&lt;/font&gt;" style="rounded=0;whiteSpace=wrap;html=1;" vertex="1" parent="1">
          <mxGeometry x="630" y="2130" width="160" height="60" as="geometry" />
        </mxCell>
      </root>
    </mxGraphModel>
  </diagram>
</mxfile>
